<svg viewBox="0 0 2036 188" width="2036" height="188" xmlns="http://www.w3.org/2000/svg">
<defs><marker id="arrow" markerWidth="10" markerHeight="10" refX="9" refY="3" orient="auto" markerUnits="strokeWidth"><polygon points="0,0 9,3 0,6" fill="#555"/></marker></defs>
<line x1="94" y1="164" x2="430" y2="120" stroke="#555" marker-end="url(#arrow)"/>
<line x1="94" y1="164" x2="262" y2="120" stroke="#555" marker-end="url(#arrow)"/>
<line x1="94" y1="164" x2="1102" y2="120" stroke="#555" marker-end="url(#arrow)"/>
<line x1="94" y1="164" x2="934" y2="120" stroke="#555" marker-end="url(#arrow)"/>
<line x1="94" y1="164" x2="1270" y2="120" stroke="#555" marker-end="url(#arrow)"/>
<line x1="94" y1="164" x2="1774" y2="120" stroke="#555" marker-end="url(#arrow)"/>
<line x1="94" y1="164" x2="598" y2="120" stroke="#555" marker-end="url(#arrow)"/>
<line x1="94" y1="164" x2="1438" y2="120" stroke="#555" marker-end="url(#arrow)"/>
<line x1="94" y1="164" x2="1606" y2="120" stroke="#555" marker-end="url(#arrow)"/>
<line x1="94" y1="164" x2="1942" y2="120" stroke="#555" marker-end="url(#arrow)"/>
<line x1="94" y1="164" x2="766" y2="120" stroke="#555" marker-end="url(#arrow)"/>
<line x1="430" y1="164" x2="94" y2="120" stroke="#555" marker-end="url(#arrow)"/>
<line x1="430" y1="164" x2="262" y2="120" stroke="#555" marker-end="url(#arrow)"/>
<line x1="430" y1="164" x2="1102" y2="120" stroke="#555" marker-end="url(#arrow)"/>
<line x1="430" y1="164" x2="934" y2="120" stroke="#555" marker-end="url(#arrow)"/>
<line x1="430" y1="164" x2="1270" y2="120" stroke="#555" marker-end="url(#arrow)"/>
<line x1="430" y1="164" x2="1774" y2="120" stroke="#555" marker-end="url(#arrow)"/>
<line x1="430" y1="164" x2="598" y2="120" stroke="#555" marker-end="url(#arrow)"/>
<line x1="430" y1="164" x2="1438" y2="120" stroke="#555" marker-end="url(#arrow)"/>
<line x1="430" y1="164" x2="1942" y2="120" stroke="#555" marker-end="url(#arrow)"/>
<line x1="262" y1="164" x2="94" y2="120" stroke="#555" marker-end="url(#arrow)"/>
<line x1="1102" y1="164" x2="94" y2="120" stroke="#555" marker-end="url(#arrow)"/>
<line x1="1102" y1="164" x2="430" y2="120" stroke="#555" marker-end="url(#arrow)"/>
<line x1="1102" y1="164" x2="262" y2="120" stroke="#555" marker-end="url(#arrow)"/>
<line x1="1102" y1="164" x2="934" y2="120" stroke="#555" marker-end="url(#arrow)"/>
<line x1="1102" y1="164" x2="1774" y2="120" stroke="#555" marker-end="url(#arrow)"/>
<line x1="1102" y1="164" x2="598" y2="120" stroke="#555" marker-end="url(#arrow)"/>
<line x1="1102" y1="164" x2="766" y2="120" stroke="#555" marker-end="url(#arrow)"/>
<line x1="934" y1="164" x2="94" y2="120" stroke="#555" marker-end="url(#arrow)"/>
<line x1="934" y1="164" x2="430" y2="120" stroke="#555" marker-end="url(#arrow)"/>
<line x1="934" y1="164" x2="262" y2="120" stroke="#555" marker-end="url(#arrow)"/>
<line x1="1270" y1="164" x2="94" y2="120" stroke="#555" marker-end="url(#arrow)"/>
<line x1="1270" y1="164" x2="430" y2="120" stroke="#555" marker-end="url(#arrow)"/>
<line x1="1270" y1="164" x2="262" y2="120" stroke="#555" marker-end="url(#arrow)"/>
<line x1="1270" y1="164" x2="934" y2="120" stroke="#555" marker-end="url(#arrow)"/>
<line x1="1270" y1="164" x2="1942" y2="120" stroke="#555" marker-end="url(#arrow)"/>
<line x1="1774" y1="164" x2="94" y2="120" stroke="#555" marker-end="url(#arrow)"/>
<line x1="1774" y1="164" x2="430" y2="120" stroke="#555" marker-end="url(#arrow)"/>
<line x1="1774" y1="164" x2="262" y2="120" stroke="#555" marker-end="url(#arrow)"/>
<line x1="1774" y1="164" x2="598" y2="120" stroke="#555" marker-end="url(#arrow)"/>
<line x1="1774" y1="164" x2="1606" y2="120" stroke="#555" marker-end="url(#arrow)"/>
<line x1="598" y1="164" x2="94" y2="120" stroke="#555" marker-end="url(#arrow)"/>
<line x1="598" y1="164" x2="430" y2="120" stroke="#555" marker-end="url(#arrow)"/>
<line x1="598" y1="164" x2="262" y2="120" stroke="#555" marker-end="url(#arrow)"/>
<line x1="598" y1="164" x2="1942" y2="120" stroke="#555" marker-end="url(#arrow)"/>
<line x1="1438" y1="164" x2="94" y2="120" stroke="#555" marker-end="url(#arrow)"/>
<line x1="1438" y1="164" x2="430" y2="120" stroke="#555" marker-end="url(#arrow)"/>
<line x1="1438" y1="164" x2="262" y2="120" stroke="#555" marker-end="url(#arrow)"/>
<line x1="1438" y1="164" x2="1270" y2="120" stroke="#555" marker-end="url(#arrow)"/>
<line x1="1438" y1="164" x2="1774" y2="120" stroke="#555" marker-end="url(#arrow)"/>
<line x1="1606" y1="164" x2="94" y2="120" stroke="#555" marker-end="url(#arrow)"/>
<line x1="1606" y1="164" x2="430" y2="120" stroke="#555" marker-end="url(#arrow)"/>
<line x1="1606" y1="164" x2="262" y2="120" stroke="#555" marker-end="url(#arrow)"/>
<line x1="1606" y1="164" x2="1102" y2="120" stroke="#555" marker-end="url(#arrow)"/>
<line x1="1606" y1="164" x2="934" y2="120" stroke="#555" marker-end="url(#arrow)"/>
<line x1="1606" y1="164" x2="766" y2="120" stroke="#555" marker-end="url(#arrow)"/>
<line x1="1942" y1="164" x2="94" y2="120" stroke="#555" marker-end="url(#arrow)"/>
<line x1="1942" y1="164" x2="430" y2="120" stroke="#555" marker-end="url(#arrow)"/>
<line x1="1942" y1="164" x2="262" y2="120" stroke="#555" marker-end="url(#arrow)"/>
<line x1="1942" y1="164" x2="766" y2="120" stroke="#555" marker-end="url(#arrow)"/>
<line x1="766" y1="164" x2="94" y2="120" stroke="#555" marker-end="url(#arrow)"/>
<line x1="766" y1="164" x2="430" y2="120" stroke="#555" marker-end="url(#arrow)"/>
<line x1="94" y1="68" x2="94" y2="120" stroke="#555" marker-end="url(#arrow)"/>
<line x1="94" y1="68" x2="430" y2="120" stroke="#555" marker-end="url(#arrow)"/>
<line x1="94" y1="68" x2="262" y2="120" stroke="#555" marker-end="url(#arrow)"/>
<line x1="94" y1="68" x2="934" y2="120" stroke="#555" marker-end="url(#arrow)"/>
<line x1="94" y1="68" x2="1270" y2="120" stroke="#555" marker-end="url(#arrow)"/>
<line x1="94" y1="68" x2="1438" y2="120" stroke="#555" marker-end="url(#arrow)"/>
<rect x="24" y="24" width="140" height="44" rx="6" fill="#eef" stroke="#557"/>
<text x="94" y="51" text-anchor="middle" font-family="sans-serif" font-size="13">ariadne-watcher</text>
<rect x="24" y="120" width="140" height="44" rx="6" fill="#eef" stroke="#557"/>
<text x="94" y="147" text-anchor="middle" font-family="sans-serif" font-size="13">ariadne-cli</text>
<rect x="192" y="120" width="140" height="44" rx="6" fill="#eef" stroke="#557"/>
<text x="262" y="147" text-anchor="middle" font-family="sans-serif" font-size="13">ariadne-core</text>
<rect x="360" y="120" width="140" height="44" rx="6" fill="#eef" stroke="#557"/>
<text x="430" y="147" text-anchor="middle" font-family="sans-serif" font-size="13">ariadne-daemon</text>
<rect x="528" y="120" width="140" height="44" rx="6" fill="#eef" stroke="#557"/>
<text x="598" y="147" text-anchor="middle" font-family="sans-serif" font-size="13">ariadne-e2e</text>
<rect x="696" y="120" width="140" height="44" rx="6" fill="#eef" stroke="#557"/>
<text x="766" y="147" text-anchor="middle" font-family="sans-serif" font-size="13">ariadne-git</text>
<rect x="864" y="120" width="140" height="44" rx="6" fill="#eef" stroke="#557"/>
<text x="934" y="147" text-anchor="middle" font-family="sans-serif" font-size="13">ariadne-graph</text>
<rect x="1032" y="120" width="140" height="44" rx="6" fill="#eef" stroke="#557"/>
<text x="1102" y="147" text-anchor="middle" font-family="sans-serif" font-size="13">ariadne-mcp</text>
<rect x="1200" y="120" width="140" height="44" rx="6" fill="#eef" stroke="#557"/>
<text x="1270" y="147" text-anchor="middle" font-family="sans-serif" font-size="13">ariadne-parser</text>
<rect x="1368" y="120" width="140" height="44" rx="6" fill="#eef" stroke="#557"/>
<text x="1438" y="147" text-anchor="middle" font-family="sans-serif" font-size="13">ariadne-salsa</text>
<rect x="1536" y="120" width="140" height="44" rx="6" fill="#eef" stroke="#557"/>
<text x="1606" y="147" text-anchor="middle" font-family="sans-serif" font-size="13">ariadne-scip</text>
<rect x="1704" y="120" width="140" height="44" rx="6" fill="#eef" stroke="#557"/>
<text x="1774" y="147" text-anchor="middle" font-family="sans-serif" font-size="13">ariadne-storage</text>
<rect x="1872" y="120" width="140" height="44" rx="6" fill="#eef" stroke="#557"/>
<text x="1942" y="147" text-anchor="middle" font-family="sans-serif" font-size="13">tools</text>
</svg>
